<svg xmlns="http://www.w3.org/2000/svg" viewBox="0 0 64 64">
  <defs>
    <linearGradient id="b" x1="0%" y1="0%" x2="100%" y2="100%">
      <stop offset="0%" stop-color="#f97316"/>
      <stop offset="100%" stop-color="#ef4444"/>
    </linearGradient>
  </defs>
  <circle cx="32" cy="32" r="31" fill="#111"/>
  <ellipse cx="32" cy="34" rx="14" ry="9" fill="url(#b)"/>
  <!-- Claws -->
  <path d="M18 33 C14 28 12 22 15 20 C17 19 19 21 19 25Z" fill="url(#b)"/>
  <path d="M18 33 C13 31 10 26 12 23 C13 21 16 22 17 25Z" fill="url(#b)"/>
  <path d="M46 33 C50 28 52 22 49 20 C47 19 45 21 45 25Z" fill="url(#b)"/>
  <path d="M46 33 C51 31 54 26 52 23 C51 21 48 22 47 25Z" fill="url(#b)"/>
  <!-- Eyes -->
  <circle cx="27" cy="27" r="3" fill="#111"/>
  <circle cx="37" cy="27" r="3" fill="#111"/>
  <circle cx="27.8" cy="26.2" r="1.2" fill="#fff"/>
  <circle cx="37.8" cy="26.2" r="1.2" fill="#fff"/>
  <!-- Legs -->
  <line x1="22" y1="39" x2="15" y2="44" stroke="#e8630c" stroke-width="1.5" stroke-linecap="round"/>
  <line x1="20" y1="41" x2="14" y2="47" stroke="#e8630c" stroke-width="1.3" stroke-linecap="round"/>
  <line x1="42" y1="39" x2="49" y2="44" stroke="#e8630c" stroke-width="1.5" stroke-linecap="round"/>
  <line x1="44" y1="41" x2="50" y2="47" stroke="#e8630c" stroke-width="1.3" stroke-linecap="round"/>
  <!-- Smile -->
  <path d="M29 36 Q32 39 35 36" stroke="#111" stroke-width="1" fill="none" stroke-linecap="round"/>
</svg>
